<svg version="1.1" id="Layer_1" xmlns="http://www.w3.org/2000/svg" xmlns:xlink="http://www.w3.org/1999/xlink" x="0px" y="0px"
	 width="100%" viewBox="0 0 470 95" enable-background="new 0 0 470 95" xml:space="preserve">
<path fill="#FFFDFD" opacity="1.000000" stroke="none" 
	d="
M451.000916,96.000000 
	C300.667450,96.000000 150.834198,96.000000 1.000707,96.000000 
	C1.000472,64.333664 1.000472,32.667328 1.000236,1.000746 
	C157.666245,1.000497 314.332489,1.000497 470.999084,1.000249 
	C470.999390,32.666233 470.999390,64.332466 470.999695,95.999352 
	C464.500366,96.000000 458.000763,96.000000 451.000916,96.000000 
M31.858053,72.748894 
	C45.288792,80.196083 60.168686,78.275757 69.756577,67.857887 
	C77.867218,59.045139 79.457596,45.494194 73.276016,36.523315 
	C67.816429,40.117809 62.356071,43.712803 56.788998,47.378059 
	C60.500061,51.744896 63.930672,55.600216 67.145531,59.627758 
	C69.330147,62.364609 68.501350,64.353645 65.014336,64.771767 
	C60.936924,65.260681 57.073051,64.957916 54.255219,61.205978 
	C52.956322,59.476498 51.186264,58.100872 50.264694,57.191357 
	C48.612011,60.046490 47.590996,64.004784 45.849468,64.352287 
	C42.450294,65.030579 37.463783,64.968010 35.256058,62.922466 
	C30.452353,58.471642 30.526947,40.508869 35.226116,35.920513 
	C37.916153,33.293911 42.412167,32.292973 46.284843,31.300623 
	C47.012276,31.114222 48.637226,34.430389 50.038113,36.397160 
	C54.605091,33.406300 59.732891,30.048166 65.170067,26.487419 
	C59.766563,23.259182 54.670109,20.214388 49.236874,16.968388 
	C49.001865,18.572752 48.829796,19.747429 48.672585,20.820663 
	C33.363857,22.006626 23.388168,29.337631 19.767624,41.779739 
	C16.432291,53.241714 20.696072,64.580521 31.858053,72.748894 
M300.503876,63.197502 
	C310.006165,61.215218 314.666473,56.465866 314.831940,48.595581 
	C314.993958,40.890846 310.787506,35.509762 302.332184,33.456463 
	C293.800385,31.384598 285.159210,31.343519 276.666443,33.844017 
	C268.586182,36.223068 265.106781,41.166069 265.473145,49.299671 
	C265.793793,56.418732 270.034546,61.740223 277.842468,62.761223 
	C285.025269,63.700470 292.389008,63.255867 300.503876,63.197502 
M168.281494,63.722862 
	C169.746338,63.655891 171.211166,63.588917 172.847015,63.514126 
	C172.847015,61.152397 172.847015,59.066814 172.847015,56.585533 
	C164.519058,56.585533 156.424606,56.585533 148.140274,56.585533 
	C148.140274,54.953896 148.140274,53.719669 148.140274,52.025154 
	C156.302765,52.025154 164.208893,52.025154 172.261749,52.025154 
	C172.261749,49.484165 172.261749,47.407036 172.261749,44.936756 
	C164.063690,44.936756 156.134567,44.936756 148.082336,44.936756 
	C148.082336,43.137337 148.082336,41.738918 148.082336,39.764336 
	C156.677719,39.764336 165.064911,39.764336 173.501068,39.764336 
	C173.501068,37.245590 173.501068,35.307976 173.501068,33.094418 
	C161.396271,33.094418 149.511902,33.094418 137.527451,33.094418 
	C137.527451,43.377846 137.527451,53.402962 137.527451,63.722828 
	C147.709717,63.722828 157.516571,63.722828 168.281494,63.722862 
M419.531769,63.713196 
	C427.763702,63.713196 435.995636,63.713196 444.248993,63.713196 
	C444.248993,60.981903 444.248993,59.052143 444.248993,56.689651 
	C436.860352,56.689651 429.735657,56.571381 422.617676,56.738129 
	C418.899109,56.825237 418.420990,55.298027 419.789612,51.970093 
	C427.690216,51.970093 435.617737,51.970093 443.706787,51.970093 
	C443.706787,49.531765 443.706787,47.469524 443.706787,44.912933 
	C435.422394,44.912933 427.352570,44.912933 419.028809,44.912933 
	C419.151154,43.003403 419.240570,41.607658 419.363190,39.693672 
	C428.075134,39.693672 436.457611,39.693672 444.792847,39.693672 
	C444.792847,37.202698 444.792847,35.258163 444.792847,33.134712 
	C432.710114,33.134712 420.844788,33.134712 408.941101,33.134712 
	C408.941101,43.364475 408.941101,53.281311 408.941101,63.713150 
	C412.295013,63.713150 415.420563,63.713150 419.531769,63.713196 
M243.477570,32.824337 
	C237.045670,32.824337 230.613754,32.824337 224.200409,32.824337 
	C224.200409,43.228050 224.200409,53.083241 224.200409,62.845757 
	C227.357071,62.845757 230.134827,62.845757 233.547028,62.845757 
	C233.547028,59.256966 233.547028,55.892876 233.547028,52.308846 
	C237.005280,52.308846 239.825226,52.307961 242.645172,52.309010 
	C251.769073,52.312401 251.985107,52.526875 252.375275,61.777157 
	C252.387573,62.068886 252.642441,62.350380 252.807877,62.684380 
	C255.832321,62.684380 258.859589,62.684380 261.861359,62.684380 
	C262.301697,51.891960 262.301697,51.891960 258.568787,48.633148 
	C259.763885,45.081242 261.692505,42.049637 261.549042,39.119473 
	C261.352020,35.094513 257.489227,33.675644 253.929108,33.165745 
	C250.822052,32.720741 247.623703,32.913395 243.477570,32.824337 
M349.987915,52.291420 
	C345.345856,56.980141 339.772278,56.724228 334.263763,54.696163 
	C329.262115,52.854702 329.251617,48.195274 329.294281,43.751652 
	C329.328613,40.174652 329.301239,36.597061 329.301239,33.062916 
	C325.451630,33.062916 322.352173,33.062916 318.595673,33.062916 
	C320.126709,42.746361 314.950439,54.158760 325.954163,60.497322 
	C335.234650,65.843254 345.774628,65.845238 355.073822,60.395344 
	C366.041016,53.967899 361.134277,42.727486 362.225464,33.129974 
	C358.441223,33.129974 355.217987,33.129974 352.352081,33.129974 
	C351.676605,39.510040 351.036804,45.553181 349.987915,52.291420 
M130.603271,36.117794 
	C131.536224,35.289120 132.469177,34.460445 134.073090,33.035793 
	C126.902969,32.683552 120.671967,31.648754 116.058510,37.689056 
	C114.573524,39.633324 112.487068,41.196293 110.453064,42.614216 
	C109.208572,43.481758 107.540382,43.741505 105.326416,44.539524 
	C105.326416,39.959923 105.326416,36.538273 105.326416,33.120346 
	C101.968124,33.120346 99.053467,33.120346 96.198227,33.120346 
	C96.198227,43.297413 96.198227,53.176792 96.198227,62.987450 
	C99.381165,62.987450 102.188087,62.987450 105.279694,62.987450 
	C105.443268,59.894810 105.598053,56.968449 105.850632,52.193130 
	C109.775131,54.808750 113.170876,56.351734 115.595665,58.840652 
	C120.381882,63.753471 125.904083,63.727268 132.832108,62.681858 
	C126.853500,57.940891 121.527657,53.717564 115.938889,49.285736 
	C120.944130,44.793175 125.512711,40.692547 130.603271,36.117794 
M392.478760,63.742073 
	C396.600433,63.742073 400.722137,63.742073 405.090088,63.742073 
	C405.090088,61.033497 405.090088,58.782730 405.090088,56.030960 
	C400.288818,56.030960 395.718903,56.030960 390.776001,56.030960 
	C390.776001,48.106045 390.776001,40.676201 390.776001,33.158295 
	C386.994568,33.158295 383.620453,33.158295 379.823120,33.158295 
	C379.823120,40.928642 379.823120,48.349098 379.823120,56.267914 
	C374.823822,56.267914 370.242767,56.267914 365.656982,56.267914 
	C365.656982,59.001457 365.656982,61.213272 365.656982,63.742023 
	C374.529602,63.742023 383.007233,63.742023 392.478760,63.742073 
M202.781235,57.718884 
	C206.874832,64.777626 213.279190,64.331505 220.806976,63.253757 
	C217.835678,60.060337 215.580521,57.172787 212.866608,54.812843 
	C206.493835,49.271225 201.342514,43.307846 203.127335,34.000858 
	C203.167068,33.793701 202.786636,33.505970 202.640106,33.307228 
	C199.480591,33.307228 196.377792,33.307228 193.314880,33.307228 
	C191.929718,45.513504 191.936417,45.519550 184.183197,54.102318 
	C181.489227,57.084511 178.752991,60.028526 176.036057,62.989971 
	C176.288345,63.510128 176.540634,64.030281 176.792923,64.550438 
	C180.802261,63.641453 185.211853,63.482849 188.710556,61.616554 
	C192.350586,59.674862 195.110764,56.083714 198.366135,53.113003 
	C199.540939,54.344906 200.908997,55.779476 202.781235,57.718884 
z"/>
<path fill="#C80606" opacity="1.000000" stroke="none" 
	d="
M31.556475,72.538551 
	C20.696072,64.580521 16.432291,53.241714 19.767624,41.779739 
	C23.388168,29.337631 33.363857,22.006626 48.672585,20.820663 
	C48.829796,19.747429 49.001865,18.572752 49.236874,16.968388 
	C54.670109,20.214388 59.766563,23.259182 65.170067,26.487419 
	C59.732891,30.048166 54.605091,33.406300 50.038113,36.397160 
	C48.637226,34.430389 47.012276,31.114222 46.284843,31.300623 
	C42.412167,32.292973 37.916153,33.293911 35.226116,35.920513 
	C30.526947,40.508869 30.452353,58.471642 35.256058,62.922466 
	C37.463783,64.968010 42.450294,65.030579 45.849468,64.352287 
	C47.590996,64.004784 48.612011,60.046490 50.264694,57.191357 
	C51.186264,58.100872 52.956322,59.476498 54.255219,61.205978 
	C57.073051,64.957916 60.936924,65.260681 65.014336,64.771767 
	C68.501350,64.353645 69.330147,62.364609 67.145531,59.627758 
	C63.930672,55.600216 60.500061,51.744896 56.788998,47.378059 
	C62.356071,43.712803 67.816429,40.117809 73.276016,36.523315 
	C79.457596,45.494194 77.867218,59.045139 69.756577,67.857887 
	C60.168686,78.275757 45.288792,80.196083 31.556475,72.538551 
z"/>
<path fill="#C90707" opacity="1.000000" stroke="none" 
	d="
M300.088440,63.309196 
	C292.389008,63.255867 285.025269,63.700470 277.842468,62.761223 
	C270.034546,61.740223 265.793793,56.418732 265.473145,49.299671 
	C265.106781,41.166069 268.586182,36.223068 276.666443,33.844017 
	C285.159210,31.343519 293.800385,31.384598 302.332184,33.456463 
	C310.787506,35.509762 314.993958,40.890846 314.831940,48.595581 
	C314.666473,56.465866 310.006165,61.215218 300.088440,63.309196 
M285.971619,39.984085 
	C284.687286,40.292137 283.378571,40.523491 282.123230,40.922775 
	C278.523560,42.067764 276.783539,44.543907 276.683167,48.353298 
	C276.576752,52.392551 278.919098,55.140068 282.312836,55.493572 
	C287.639099,56.048374 293.211731,55.975163 298.432831,54.931335 
	C300.468536,54.524345 303.202240,50.730473 303.144958,48.544102 
	C303.079346,46.040993 300.782654,42.395424 298.522430,41.429722 
	C295.053802,39.947716 290.788422,40.330662 285.971619,39.984085 
z"/>
<path fill="#C90909" opacity="1.000000" stroke="none" 
	d="
M167.802460,63.722847 
	C157.516571,63.722828 147.709717,63.722828 137.527451,63.722828 
	C137.527451,53.402962 137.527451,43.377846 137.527451,33.094418 
	C149.511902,33.094418 161.396271,33.094418 173.501068,33.094418 
	C173.501068,35.307976 173.501068,37.245590 173.501068,39.764336 
	C165.064911,39.764336 156.677719,39.764336 148.082336,39.764336 
	C148.082336,41.738918 148.082336,43.137337 148.082336,44.936756 
	C156.134567,44.936756 164.063690,44.936756 172.261749,44.936756 
	C172.261749,47.407036 172.261749,49.484165 172.261749,52.025154 
	C164.208893,52.025154 156.302765,52.025154 148.140274,52.025154 
	C148.140274,53.719669 148.140274,54.953896 148.140274,56.585533 
	C156.424606,56.585533 164.519058,56.585533 172.847015,56.585533 
	C172.847015,59.066814 172.847015,61.152397 172.847015,63.514126 
	C171.211166,63.588917 169.746338,63.655891 167.802460,63.722847 
z"/>
<path fill="#C80505" opacity="1.000000" stroke="none" 
	d="
M419.038940,63.713173 
	C415.420563,63.713150 412.295013,63.713150 408.941101,63.713150 
	C408.941101,53.281311 408.941101,43.364475 408.941101,33.134712 
	C420.844788,33.134712 432.710114,33.134712 444.792847,33.134712 
	C444.792847,35.258163 444.792847,37.202698 444.792847,39.693672 
	C436.457611,39.693672 428.075134,39.693672 419.363190,39.693672 
	C419.240570,41.607658 419.151154,43.003403 419.028809,44.912933 
	C427.352570,44.912933 435.422394,44.912933 443.706787,44.912933 
	C443.706787,47.469524 443.706787,49.531765 443.706787,51.970093 
	C435.617737,51.970093 427.690216,51.970093 419.789612,51.970093 
	C418.420990,55.298027 418.899109,56.825237 422.617676,56.738129 
	C429.735657,56.571381 436.860352,56.689651 444.248993,56.689651 
	C444.248993,59.052143 444.248993,60.981903 444.248993,63.713196 
	C435.995636,63.713196 427.763702,63.713196 419.038940,63.713173 
z"/>
<path fill="#C80505" opacity="1.000000" stroke="none" 
	d="
M243.971619,32.824329 
	C247.623703,32.913395 250.822052,32.720741 253.929108,33.165745 
	C257.489227,33.675644 261.352020,35.094513 261.549042,39.119473 
	C261.692505,42.049637 259.763885,45.081242 258.568787,48.633148 
	C262.301697,51.891960 262.301697,51.891960 261.861359,62.684380 
	C258.859589,62.684380 255.832321,62.684380 252.807877,62.684380 
	C252.642441,62.350380 252.387573,62.068886 252.375275,61.777157 
	C251.985107,52.526875 251.769073,52.312401 242.645172,52.309010 
	C239.825226,52.307961 237.005280,52.308846 233.547028,52.308846 
	C233.547028,55.892876 233.547028,59.256966 233.547028,62.845757 
	C230.134827,62.845757 227.357071,62.845757 224.200409,62.845757 
	C224.200409,53.083241 224.200409,43.228050 224.200409,32.824337 
	C230.613754,32.824337 237.045670,32.824337 243.971619,32.824329 
M251.739288,41.723064 
	C250.675293,41.061554 249.633301,39.874413 248.543518,39.828789 
	C243.612808,39.622364 238.668579,39.738533 233.543015,39.738533 
	C233.543015,41.820187 233.543015,43.540810 233.543015,45.726917 
	C238.596313,45.726917 243.382294,45.956768 248.119888,45.579304 
	C249.448013,45.473480 250.633743,43.580242 251.739288,41.723064 
z"/>
<path fill="#C80404" opacity="1.000000" stroke="none" 
	d="
M350.192444,51.943871 
	C351.036804,45.553181 351.676605,39.510040 352.352081,33.129974 
	C355.217987,33.129974 358.441223,33.129974 362.225464,33.129974 
	C361.134277,42.727486 366.041016,53.967899 355.073822,60.395344 
	C345.774628,65.845238 335.234650,65.843254 325.954163,60.497322 
	C314.950439,54.158760 320.126709,42.746361 318.595673,33.062916 
	C322.352173,33.062916 325.451630,33.062916 329.301239,33.062916 
	C329.301239,36.597061 329.328613,40.174652 329.294281,43.751652 
	C329.251617,48.195274 329.262115,52.854702 334.263763,54.696163 
	C339.772278,56.724228 345.345856,56.980141 350.192444,51.943871 
z"/>
<path fill="#C80404" opacity="1.000000" stroke="none" 
	d="
M130.342285,36.354858 
	C125.512711,40.692547 120.944130,44.793175 115.938889,49.285736 
	C121.527657,53.717564 126.853500,57.940891 132.832108,62.681858 
	C125.904083,63.727268 120.381882,63.753471 115.595665,58.840652 
	C113.170876,56.351734 109.775131,54.808750 105.850632,52.193130 
	C105.598053,56.968449 105.443268,59.894810 105.279694,62.987450 
	C102.188087,62.987450 99.381165,62.987450 96.198227,62.987450 
	C96.198227,53.176792 96.198227,43.297413 96.198227,33.120346 
	C99.053467,33.120346 101.968124,33.120346 105.326416,33.120346 
	C105.326416,36.538273 105.326416,39.959923 105.326416,44.539524 
	C107.540382,43.741505 109.208572,43.481758 110.453064,42.614216 
	C112.487068,41.196293 114.573524,39.633324 116.058510,37.689056 
	C120.671967,31.648754 126.902969,32.683552 134.073090,33.035793 
	C132.469177,34.460445 131.536224,35.289120 130.342285,36.354858 
z"/>
<path fill="#CA0F0F" opacity="1.000000" stroke="none" 
	d="
M391.981812,63.742050 
	C383.007233,63.742023 374.529602,63.742023 365.656982,63.742023 
	C365.656982,61.213272 365.656982,59.001457 365.656982,56.267914 
	C370.242767,56.267914 374.823822,56.267914 379.823120,56.267914 
	C379.823120,48.349098 379.823120,40.928642 379.823120,33.158295 
	C383.620453,33.158295 386.994568,33.158295 390.776001,33.158295 
	C390.776001,40.676201 390.776001,48.106045 390.776001,56.030960 
	C395.718903,56.030960 400.288818,56.030960 405.090088,56.030960 
	C405.090088,58.782730 405.090088,61.033497 405.090088,63.742073 
	C400.722137,63.742073 396.600433,63.742073 391.981812,63.742050 
z"/>
<path fill="#C90B0B" opacity="1.000000" stroke="none" 
	d="
M202.529144,57.466465 
	C200.908997,55.779476 199.540939,54.344906 198.366135,53.113003 
	C195.110764,56.083714 192.350586,59.674862 188.710556,61.616554 
	C185.211853,63.482849 180.802261,63.641453 176.792923,64.550438 
	C176.540634,64.030281 176.288345,63.510128 176.036057,62.989971 
	C178.752991,60.028526 181.489227,57.084511 184.183197,54.102318 
	C191.936417,45.519550 191.929718,45.513504 193.314880,33.307228 
	C196.377792,33.307228 199.480591,33.307228 202.640106,33.307228 
	C202.786636,33.505970 203.167068,33.793701 203.127335,34.000858 
	C201.342514,43.307846 206.493835,49.271225 212.866608,54.812843 
	C215.580521,57.172787 217.835678,60.060337 220.806976,63.253757 
	C213.279190,64.331505 206.874832,64.777626 202.529144,57.466465 
z"/>
<path fill="#FEF9F9" opacity="1.000000" stroke="none" 
	d="
M286.416382,39.953133 
	C290.788422,40.330662 295.053802,39.947716 298.522430,41.429722 
	C300.782654,42.395424 303.079346,46.040993 303.144958,48.544102 
	C303.202240,50.730473 300.468536,54.524345 298.432831,54.931335 
	C293.211731,55.975163 287.639099,56.048374 282.312836,55.493572 
	C278.919098,55.140068 276.576752,52.392551 276.683167,48.353298 
	C276.783539,44.543907 278.523560,42.067764 282.123230,40.922775 
	C283.378571,40.523491 284.687286,40.292137 286.416382,39.953133 
z"/>
<path fill="#FAE9E9" opacity="1.000000" stroke="none" 
	d="
M251.812042,42.114983 
	C250.633743,43.580242 249.448013,45.473480 248.119888,45.579304 
	C243.382294,45.956768 238.596313,45.726917 233.543015,45.726917 
	C233.543015,43.540810 233.543015,41.820187 233.543015,39.738533 
	C238.668579,39.738533 243.612808,39.622364 248.543518,39.828789 
	C249.633301,39.874413 250.675293,41.061554 251.812042,42.114983 
z"/>
</svg>